<svg xmlns="http://www.w3.org/2000/svg" viewBox="0 0 512 512" width="512" height="512">
  <defs>
    <radialGradient id="hd3" cx="44%" cy="40%" r="60%">
      <stop offset="0%"   stop-color="#7DD8F8"/>
      <stop offset="100%" stop-color="#3AACE0"/>
    </radialGradient>
    <radialGradient id="mz3" cx="50%" cy="30%" r="65%">
      <stop offset="0%"   stop-color="#A8EAFF"/>
      <stop offset="100%" stop-color="#5CCAF4"/>
    </radialGradient>
    <radialGradient id="er3" cx="35%" cy="15%" r="75%">
      <stop offset="0%"   stop-color="#5EC4F0"/>
      <stop offset="100%" stop-color="#2898D8"/>
    </radialGradient>
    <radialGradient id="ey3" cx="36%" cy="32%" r="58%">
      <stop offset="0%"   stop-color="#0FACED"/>
      <stop offset="100%" stop-color="#0890C8"/>
    </radialGradient>
  </defs>

  <!-- SIGNAL — darker so it reads on light backgrounds -->
  <circle cx="256" cy="152" r="11" fill="#0078B8"/>
  <path d="M 224,124 A 38,38 0 0,1 288,124" fill="none" stroke="#0078B8" stroke-width="13" stroke-linecap="round"/>
  <path d="M 194,96 A 68,68 0 0,1 318,96"  fill="none" stroke="#0078B8" stroke-width="11" stroke-linecap="round" opacity="0.75"/>
  <path d="M 164,70 A 98,98 0 0,1 348,70"  fill="none" stroke="#0078B8" stroke-width="9"  stroke-linecap="round" opacity="0.45"/>

  <!-- LEFT EAR -->
  <path d="M 144,316 C 148,262 166,188 204,150 C 220,134 240,170 258,220 Z" fill="url(#er3)"/>
  <path d="M 164,302 C 168,258 182,198 212,168 C 222,156 236,182 250,218 Z" fill="white" opacity="0.25"/>

  <!-- RIGHT EAR -->
  <path d="M 368,316 C 364,262 346,188 308,150 C 292,134 272,170 254,220 Z" fill="url(#er3)"/>
  <path d="M 348,302 C 344,258 330,198 300,168 C 290,156 276,182 262,218 Z" fill="white" opacity="0.25"/>

  <!-- HEAD -->
  <ellipse cx="256" cy="344" rx="121" ry="112" fill="url(#hd3)"/>

  <!-- MUZZLE -->
  <ellipse cx="256" cy="382" rx="60" ry="47" fill="url(#mz3)"/>

  <!-- BROWS — dark navy on pale wolf -->
  <path d="M 190,310 Q 212,300 234,298" fill="none" stroke="#0B4A80" stroke-width="6" stroke-linecap="round" opacity="0.85"/>
  <path d="M 322,310 Q 300,300 278,298" fill="none" stroke="#0B4A80" stroke-width="6" stroke-linecap="round" opacity="0.85"/>

  <!-- LEFT EYE -->
  <circle cx="214" cy="332" r="23" fill="url(#ey3)"/>
  <circle cx="209" cy="327" r="11" fill="#071828"/>
  <circle cx="203" cy="322" r="5.5" fill="white" opacity="0.95"/>
  <circle cx="212" cy="336" r="2.5" fill="white" opacity="0.5"/>

  <!-- RIGHT EYE -->
  <circle cx="298" cy="332" r="23" fill="url(#ey3)"/>
  <circle cx="293" cy="327" r="11" fill="#071828"/>
  <circle cx="287" cy="322" r="5.5" fill="white" opacity="0.95"/>
  <circle cx="296" cy="336" r="2.5" fill="white" opacity="0.5"/>

  <!-- NOSE -->
  <ellipse cx="256" cy="368" rx="14" ry="10" fill="#071828"/>
  <ellipse cx="251" cy="364" rx="4.5" ry="3" fill="white" opacity="0.45"/>

  <!-- MOUTH -->
  <path d="M 242,384 Q 256,397 270,384" fill="none" stroke="#0B4A80" stroke-width="4" stroke-linecap="round" opacity="0.65"/>

  <!-- CHEST -->
  <path d="M 158,444 C 180,478 220,492 256,493 C 292,492 332,478 354,444 Z" fill="url(#hd3)"/>
</svg>
